<?xml version="1.0" standalone="no"?><!DOCTYPE svg PUBLIC "-//W3C//DTD SVG 1.1//EN" "http://www.w3.org/Graphics/SVG/1.1/DTD/svg11.dtd"><svg t="1573127341079" class="icon" viewBox="0 0 1024 1024" version="1.1" xmlns="http://www.w3.org/2000/svg" p-id="34468" xmlns:xlink="http://www.w3.org/1999/xlink" width="48" height="48"><defs><style type="text/css"></style></defs><path d="M298.666667 213.333333 298.666667 298.666667 896 298.666667 896 213.333333M298.666667 554.666667 896 554.666667 896 469.333333 298.666667 469.333333M298.666667 810.666667 896 810.666667 896 725.333333 298.666667 725.333333M170.666667 711.253333C139.093333 711.253333 113.92 736.853333 113.92 768 113.92 799.146667 139.52 824.746667 170.666667 824.746667 201.813333 824.746667 227.413333 799.146667 227.413333 768 227.413333 736.853333 202.24 711.253333 170.666667 711.253333M170.666667 192C135.253333 192 106.666667 220.586667 106.666667 256 106.666667 291.413333 135.253333 320 170.666667 320 206.08 320 234.666667 291.413333 234.666667 256 234.666667 220.586667 206.08 192 170.666667 192M170.666667 448C135.253333 448 106.666667 476.586667 106.666667 512 106.666667 547.413333 135.253333 576 170.666667 576 206.08 576 234.666667 547.413333 234.666667 512 234.666667 476.586667 206.08 448 170.666667 448Z" p-id="34469"></path></svg>