<?xml version="1.0" standalone="no"?><!DOCTYPE svg PUBLIC "-//W3C//DTD SVG 1.1//EN" "http://www.w3.org/Graphics/SVG/1.1/DTD/svg11.dtd"><svg t="1573127698980" class="icon" viewBox="0 0 1024 1024" version="1.1" xmlns="http://www.w3.org/2000/svg" p-id="22934" xmlns:xlink="http://www.w3.org/1999/xlink" width="48" height="48"><defs><style type="text/css"></style></defs><path d="M896 341.333333h-282.112l66.602667-199.850666a42.496 42.496 0 0 0-5.845334-38.442667A42.794667 42.794667 0 0 0 640 85.333333h-128c-12.672 0-24.661333 5.632-32.810667 15.36L278.656 341.333333H128a42.666667 42.666667 0 0 0-42.666667 42.666667v469.333333a42.666667 42.666667 0 0 0 42.666667 42.666667h640c17.792 0 33.706667-11.050667 39.978667-27.690667l128-341.333333A42.666667 42.666667 0 0 0 938.666667 512V384a42.666667 42.666667 0 0 0-42.666667-42.666667zM170.666667 426.666667h85.333333v384H170.666667v-384z m682.666666 77.610666L738.432 810.666667H341.333333V399.445333L532.010667 170.666667h48.810666l-66.602666 199.850666A42.666667 42.666667 0 0 0 554.666667 426.666667h298.666666v77.610666z" fill="" p-id="22935"></path></svg>