<?xml version="1.0" standalone="no"?><!DOCTYPE svg PUBLIC "-//W3C//DTD SVG 1.1//EN" "http://www.w3.org/Graphics/SVG/1.1/DTD/svg11.dtd"><svg t="1573127607542" class="icon" viewBox="0 0 1024 1024" version="1.1" xmlns="http://www.w3.org/2000/svg" p-id="71924" xmlns:xlink="http://www.w3.org/1999/xlink" width="48" height="48"><defs><style type="text/css"></style></defs><path d="M960.467011 959.469288 65.765843 959.469288 65.765843 64.765049l894.701169 0L960.467011 959.469288zM104.665805 920.566256l816.901245 0L921.56705 103.665011 104.665805 103.665011 104.665805 920.566256zM532.566408 298.165844 182.465728 298.165844l0 38.899962 350.10068 0L532.566408 298.165844zM532.566408 414.865729 182.465728 414.865729l0 38.899962 350.10068 0L532.566408 414.865729zM532.566408 531.565615 182.465728 531.565615l0 38.899962 350.10068 0L532.566408 531.565615zM610.367355 176.602184l0 442.488857c0 13.017478-4.865821 24.311709-14.585183 34.037211-9.730619 9.724479-21.067828 14.588253-34.035164 14.588253l-48.63058 0c-27.551496 3.291976-50.652634 13.017478-69.294203 29.175483-18.640546 16.208147-27.955702 35.658128-27.955702 58.349943 0 25.933649 9.314133 47.054689 27.955702 63.21167 18.640546 16.208147 41.742706 24.312732 69.294203 24.312732 37.282115 0 69.294203-8.508791 96.036263-25.527396 26.742061-17.019629 40.114626-37.685297 40.114626-61.997006l0-413.313374 194.499809 38.899962L843.767126 222.797295 610.367355 176.602184z" p-id="71925" fill="#2c2c2c"></path></svg>